<?xml version="1.0" standalone="no"?>
<!DOCTYPE svg PUBLIC "-//W3C//DTD SVG 20010904//EN"
 "http://www.w3.org/TR/2001/REC-SVG-20010904/DTD/svg10.dtd">
<svg version="1.0" xmlns="http://www.w3.org/2000/svg"
 width="1120.000000pt" height="1120.000000pt" viewBox="0 0 1120.000000 1120.000000"
 preserveAspectRatio="xMidYMid meet">
<metadata>
Created by potrace 1.11, written by Peter Selinger 2001-2013
</metadata>
<g transform="translate(0.000000,1120.000000) scale(0.100000,-0.100000)"
fill="#000000" stroke="none">
<path d="M2938 9595 c-1 -1 -32 -5 -68 -9 -161 -14 -384 -97 -550 -204 -185
-119 -363 -241 -368 -254 -2 -5 -10 -8 -17 -8 -8 0 -18 -6 -22 -13 -4 -7 -21
-21 -38 -32 -16 -10 -35 -23 -42 -29 -16 -14 -35 -28 -55 -41 -34 -22 -144
-100 -154 -109 -6 -6 -20 -17 -30 -24 -30 -20 -188 -131 -199 -139 -6 -5 -57
-39 -115 -78 -58 -38 -107 -73 -110 -76 -6 -7 -99 -71 -123 -84 -9 -5 -76 -50
-148 -99 -132 -90 -209 -153 -209 -173 0 -6 -9 -22 -21 -37 -11 -14 -18 -26
-15 -26 3 0 -1 -17 -7 -37 -17 -49 -13 -117 11 -208 12 -42 21 -86 27 -120 2
-11 4 -21 5 -22 3 -3 3 -3 15 -58 4 -22 10 -44 11 -50 2 -5 6 -23 9 -39 3 -16
13 -56 21 -90 9 -34 17 -71 19 -82 9 -60 64 -134 125 -168 39 -23 159 -28 183
-8 7 7 17 9 20 5 4 -3 7 -1 7 5 0 7 4 12 10 12 5 0 31 13 58 29 102 60 275
154 292 158 3 1 16 6 30 11 14 5 30 11 35 12 6 1 15 5 20 10 22 16 146 51 164
45 10 -3 21 -15 24 -27 6 -23 1 -178 -7 -218 -3 -14 -8 -38 -12 -55 -7 -36
-53 -204 -61 -225 -3 -8 -8 -24 -10 -35 -8 -38 -11 -50 -13 -50 -1 0 -3 -7 -5
-15 -4 -16 -90 -307 -129 -435 -30 -99 -73 -241 -121 -405 -20 -69 -39 -132
-42 -140 -3 -8 -7 -20 -8 -26 -2 -6 -15 -51 -30 -100 -15 -49 -28 -93 -29 -99
-1 -5 -10 -35 -19 -65 -9 -30 -17 -58 -17 -62 0 -4 -7 -23 -16 -43 -8 -19 -15
-38 -15 -42 -1 -5 -3 -12 -4 -18 -2 -5 -10 -32 -18 -60 -8 -27 -23 -77 -33
-110 -10 -33 -19 -64 -20 -70 -7 -26 -35 -119 -64 -210 -17 -55 -33 -107 -34
-115 -3 -15 -6 -23 -33 -95 -8 -22 -17 -48 -19 -59 -3 -18 -74 -234 -119 -366
-12 -36 -34 -103 -49 -150 -15 -47 -30 -92 -33 -100 -3 -8 -7 -19 -9 -25 -6
-25 -76 -232 -84 -250 -5 -11 -33 -96 -64 -190 -30 -93 -89 -271 -132 -395
-42 -124 -78 -232 -79 -240 -2 -8 -17 -52 -34 -98 -17 -45 -31 -85 -32 -90 -2
-8 1 -1 -39 -122 -18 -52 -36 -104 -40 -115 -9 -20 -24 -66 -25 -75 0 -3 -8
-25 -17 -50 -9 -25 -30 -83 -46 -130 -17 -47 -54 -150 -82 -230 -29 -80 -53
-149 -54 -155 -1 -5 -8 -21 -16 -35 -9 -16 -14 -56 -14 -110 0 -94 19 -145 71
-195 72 -68 138 -77 293 -40 49 12 69 16 88 20 50 11 64 14 80 19 9 3 28 7 42
10 14 2 52 11 85 20 33 8 76 17 95 20 19 3 60 12 90 20 30 8 66 17 80 19 14 3
66 15 115 27 50 12 99 23 110 26 19 3 44 9 92 19 13 3 32 7 43 10 11 3 29 7
41 10 11 2 28 6 37 9 9 3 28 7 42 10 14 2 86 19 160 36 131 30 151 35 196 44
89 18 243 59 273 73 79 37 153 148 166 250 2 12 6 27 10 33 3 5 8 20 11 33 2
12 22 87 44 167 23 80 42 152 45 161 4 20 38 135 101 349 25 85 46 160 48 165
1 6 5 16 9 23 5 6 6 12 3 12 -3 0 6 33 20 72 13 40 24 74 24 76 0 1 0 3 1 5 0
1 2 9 4 17 5 20 29 99 55 185 12 39 23 77 25 85 2 8 4 17 6 20 1 3 3 10 4 15
1 6 5 17 8 25 8 23 29 90 31 103 1 7 16 57 33 112 18 55 48 154 68 220 20 66
39 129 43 140 3 11 6 22 7 25 1 3 13 44 28 92 15 48 28 89 28 90 0 2 27 89 60
193 33 105 61 195 63 200 7 27 70 225 83 262 9 23 14 44 12 46 -2 2 2 11 10
20 7 10 11 17 7 17 -3 0 1 17 10 38 8 20 17 44 19 52 2 8 25 74 50 145 26 72
48 135 49 140 1 6 9 26 18 45 8 19 18 47 21 62 4 15 12 40 19 55 6 15 12 30
13 33 1 3 7 19 15 35 7 17 22 50 32 75 39 90 53 116 101 200 64 109 119 194
129 198 4 2 8 10 8 18 0 8 5 14 10 14 6 0 10 6 10 13 0 7 10 23 23 37 13 14
32 39 43 55 10 17 27 39 36 50 22 26 45 54 88 107 132 162 374 403 513 513 21
17 51 41 65 54 60 52 235 168 362 238 60 33 208 94 278 114 79 23 143 32 232
33 l65 1 0 -85 c-1 -47 -4 -101 -7 -120 -21 -106 -42 -198 -70 -305 -17 -66
-32 -127 -32 -135 -1 -8 -12 -47 -24 -85 -20 -66 -55 -184 -57 -195 -9 -46
-30 -118 -38 -127 -5 -7 -7 -13 -4 -13 4 0 0 -18 -8 -39 -7 -22 -11 -42 -8
-45 4 -3 1 -6 -5 -6 -7 0 -12 -7 -12 -16 0 -16 -90 -317 -120 -400 -11 -29
-16 -55 -13 -58 4 -3 0 -6 -7 -6 -7 0 -11 -2 -8 -6 6 -5 -9 -59 -35 -129 -13
-35 -76 -232 -83 -260 -2 -5 -5 -19 -8 -30 -3 -11 -26 -81 -51 -155 -26 -74
-48 -142 -50 -150 -2 -8 -4 -16 -5 -17 -2 -2 -3 -6 -5 -10 -1 -5 -4 -15 -8
-23 -8 -23 -29 -90 -31 -103 -1 -7 -4 -16 -8 -22 -5 -9 -84 -248 -94 -285 -2
-8 -22 -69 -44 -135 -23 -66 -43 -127 -46 -135 -2 -8 -20 -62 -40 -120 -20
-58 -37 -109 -38 -115 -2 -5 -6 -19 -10 -30 -22 -59 -27 -72 -30 -90 -3 -11
-11 -36 -20 -56 -8 -20 -12 -39 -9 -43 4 -3 1 -6 -6 -6 -7 0 -9 -4 -6 -10 3
-5 3 -16 -2 -22 -8 -14 -71 -191 -78 -220 -2 -10 -20 -64 -40 -120 -20 -57
-36 -104 -36 -105 0 -2 -2 -8 -4 -15 -2 -7 -18 -56 -35 -108 -17 -52 -35 -104
-40 -115 -8 -18 -73 -213 -75 -225 0 -3 -12 -36 -25 -75 -13 -38 -25 -74 -26
-80 -1 -5 -16 -48 -34 -95 -17 -47 -33 -96 -36 -109 -3 -13 -10 -34 -16 -45
-6 -12 -11 -22 -10 -23 1 -2 -1 -8 -3 -15 -16 -44 -207 -615 -209 -623 -1 -5
-4 -14 -8 -20 -23 -39 -26 -167 -4 -219 30 -72 85 -126 146 -144 28 -9 115 -9
145 0 17 5 44 11 60 13 17 3 91 19 165 36 74 16 151 32 170 35 19 3 38 8 41 9
3 2 59 15 125 29 65 14 149 32 185 40 36 9 77 17 90 20 13 3 56 12 94 21 39 9
79 18 90 20 11 2 63 13 115 24 126 29 119 27 165 36 22 5 45 9 50 11 6 1 33 7
60 14 48 11 60 14 115 24 74 13 199 50 227 67 59 37 124 130 138 199 2 8 8 35
15 60 7 25 13 51 13 58 0 6 5 12 10 12 6 0 8 3 5 6 -3 3 5 44 19 92 13 48 26
94 28 102 2 8 17 65 35 125 17 61 33 117 35 125 2 8 13 47 25 85 42 143 62
210 64 220 1 6 6 24 12 40 12 32 12 32 74 240 23 77 44 147 47 155 3 8 7 21 9
28 1 8 6 21 10 30 4 9 8 22 10 29 3 14 33 111 41 133 3 8 7 20 8 25 2 6 13 42
25 80 85 267 113 352 120 370 7 16 101 307 106 325 0 3 4 12 7 20 4 8 32 92
62 185 31 94 60 179 65 190 13 32 40 104 41 113 2 11 10 35 22 67 7 17 12 33
13 38 1 4 3 9 4 12 1 3 3 8 5 13 1 4 4 14 8 22 3 8 20 56 36 105 61 182 163
461 180 492 8 16 22 49 26 63 0 3 9 20 18 38 10 17 15 32 13 32 -5 0 155 316
199 395 16 28 33 52 37 53 4 2 8 8 8 14 0 6 13 30 30 55 16 24 30 48 30 54 0
5 4 9 9 9 5 0 12 8 15 18 4 10 14 27 24 38 9 11 33 42 52 69 19 28 40 57 47
65 90 113 135 163 238 265 134 134 184 176 294 252 42 29 81 57 88 63 75 63
414 212 538 236 11 2 31 6 45 9 91 19 173 26 190 15 13 -8 16 -104 5 -150 -3
-14 -8 -40 -11 -59 -3 -18 -8 -43 -10 -55 -3 -11 -7 -32 -10 -46 -3 -14 -14
-63 -25 -110 -12 -47 -22 -92 -24 -100 -2 -8 -8 -28 -14 -43 -6 -15 -13 -42
-16 -60 -4 -18 -16 -63 -28 -102 -12 -38 -22 -72 -22 -75 -5 -22 -35 -119 -76
-245 -27 -82 -49 -154 -49 -158 0 -5 -6 -23 -14 -40 -8 -18 -29 -77 -46 -132
-18 -55 -35 -104 -39 -110 -3 -5 -6 -14 -7 -20 -2 -10 -49 -144 -61 -175 -4
-8 -7 -18 -8 -22 -2 -5 -4 -10 -5 -13 -1 -3 -3 -8 -5 -12 -1 -5 -7 -21 -13
-36 -7 -16 -12 -32 -12 -36 0 -5 -8 -26 -17 -47 -10 -22 -18 -43 -19 -49 0 -5
-4 -17 -7 -25 -4 -8 -16 -42 -27 -75 -12 -33 -24 -67 -27 -75 -3 -8 -7 -19 -9
-25 -1 -5 -9 -26 -18 -46 -8 -20 -12 -39 -9 -43 4 -3 2 -6 -4 -6 -5 0 -10 -6
-11 -12 0 -7 -13 -44 -27 -83 -35 -89 -124 -344 -178 -505 -23 -69 -44 -127
-47 -130 -3 -3 -6 -14 -8 -25 -2 -11 -14 -51 -27 -90 -13 -38 -42 -131 -65
-205 -22 -74 -48 -160 -57 -190 -10 -30 -18 -61 -20 -67 -5 -19 -8 -34 -22
-83 -7 -25 -15 -56 -18 -69 -2 -14 -6 -28 -9 -33 -3 -4 -7 -16 -9 -25 -1 -10
-10 -45 -19 -79 -8 -33 -18 -71 -20 -85 -2 -13 -5 -25 -7 -26 -1 -2 -2 -6 -3
-10 -2 -7 -13 -61 -21 -98 -18 -82 -28 -134 -30 -151 -2 -11 -8 -45 -14 -75
-5 -30 -13 -79 -16 -109 -4 -30 -8 -67 -11 -81 -2 -15 -6 -62 -9 -104 -2 -43
-7 -80 -9 -83 -3 -2 -1 -13 5 -23 5 -11 6 -19 2 -19 -21 0 6 -400 32 -472 2
-7 7 -26 9 -41 5 -27 21 -86 33 -117 3 -8 7 -21 9 -28 1 -8 10 -29 18 -48 9
-19 24 -51 33 -72 82 -181 229 -334 408 -425 41 -20 118 -47 180 -63 152 -39
337 -38 470 3 118 36 370 148 403 180 7 7 24 16 38 19 13 3 24 9 24 13 0 3 14
12 30 19 17 8 36 19 43 25 19 18 50 37 70 43 9 4 17 10 17 15 0 5 5 9 10 9 6
0 56 32 111 70 55 39 104 70 109 70 4 0 10 3 12 8 2 4 91 73 198 153 107 81
228 174 267 208 40 34 77 61 83 61 5 0 10 3 10 8 0 4 28 29 63 57 34 27 64 52
67 55 3 3 28 23 55 45 28 22 57 46 66 55 9 8 25 22 35 30 22 18 312 266 334
286 116 103 144 133 168 183 29 61 39 164 21 223 -5 18 -12 49 -15 68 -3 19
-8 38 -10 41 -2 4 -6 24 -10 45 -3 20 -10 48 -15 61 -5 13 -11 38 -14 56 -3
18 -13 59 -21 92 -9 33 -17 71 -19 85 -2 14 -8 36 -13 50 -5 14 -10 27 -10 30
-1 41 -30 99 -68 136 -48 46 -93 64 -161 64 -42 0 -123 -29 -147 -52 -7 -7
-39 -35 -71 -63 -32 -27 -70 -61 -84 -73 -24 -22 -79 -69 -155 -133 -17 -14
-71 -59 -121 -98 -49 -40 -98 -78 -108 -86 -9 -8 -20 -15 -23 -15 -2 0 -14 -8
-25 -18 -10 -11 -32 -25 -47 -33 -15 -8 -30 -18 -34 -24 -4 -5 -8 -6 -8 -1 0
5 -7 3 -15 -4 -19 -16 -71 -15 -91 1 -14 11 -14 24 -1 94 3 11 7 36 11 55 11
62 14 74 26 120 7 25 14 56 16 70 3 14 8 34 11 45 4 11 8 25 9 30 1 6 16 57
34 115 17 58 32 110 33 115 1 6 6 16 10 23 5 6 6 12 3 12 -3 0 2 16 10 35 8
19 14 37 14 40 0 3 0 6 1 8 0 1 2 10 4 20 2 10 7 26 10 35 4 9 34 94 66 187
61 180 145 420 156 445 3 8 7 20 9 25 1 6 9 27 18 48 9 20 13 37 10 37 -4 0 1
9 11 20 10 11 15 20 12 20 -3 0 6 28 20 63 13 34 26 67 27 72 2 6 7 21 13 35
12 30 81 212 98 257 6 18 14 36 18 39 4 4 7 14 7 22 0 8 6 28 14 45 48 105
319 871 391 1107 63 202 106 347 110 365 2 11 9 36 15 55 6 19 13 46 16 60 3
14 12 48 20 76 8 28 16 60 19 70 2 11 11 51 20 89 9 39 18 80 20 92 2 12 6 34
9 50 4 15 9 39 12 53 3 14 7 39 9 55 2 17 6 41 9 55 16 88 32 247 31 328 0 39
4 72 8 72 5 0 5 5 2 10 -4 6 -8 56 -10 113 -4 118 -15 204 -39 307 -12 52 -18
80 -17 85 0 5 -43 125 -58 160 -25 58 -79 158 -120 220 -50 77 -187 220 -238
250 -18 11 -33 23 -33 27 0 4 -5 8 -11 8 -6 0 -24 9 -40 21 -16 11 -29 17 -29
12 0 -4 -4 -3 -8 3 -7 11 -152 73 -187 80 -11 2 -61 12 -112 22 -93 19 -309
23 -378 8 -100 -23 -237 -69 -262 -89 -7 -5 -13 -6 -13 -1 0 5 -4 5 -8 -1 -4
-5 -60 -37 -125 -70 -137 -70 -142 -73 -184 -102 -17 -13 -34 -23 -37 -23 -3
0 -55 -34 -117 -75 -154 -105 -174 -119 -177 -127 -2 -5 -10 -8 -18 -8 -9 0
-13 -4 -10 -9 3 -4 -5 -13 -17 -18 -12 -6 -58 -39 -103 -74 -45 -35 -96 -75
-114 -89 -18 -14 -38 -30 -44 -35 -6 -6 -33 -28 -61 -50 -51 -41 -74 -60 -111
-92 -12 -10 -45 -38 -75 -63 -29 -25 -60 -52 -69 -60 -9 -8 -50 -44 -91 -79
-41 -35 -85 -75 -99 -88 -14 -13 -41 -38 -61 -56 -39 -34 -208 -191 -322 -297
-38 -36 -115 -109 -170 -162 -55 -54 -102 -98 -104 -98 -2 0 -1 39 3 88 16
180 10 528 -10 662 -32 210 -97 398 -192 560 -64 110 -179 238 -264 295 -25
16 -47 32 -50 35 -15 17 -165 82 -230 100 -106 29 -159 35 -290 34 -126 -1
-205 -17 -330 -66 -93 -37 -268 -124 -294 -147 -10 -9 -20 -15 -22 -14 -8 5
-311 -191 -367 -237 -53 -43 -76 -60 -82 -60 -3 0 -12 -6 -19 -12 -7 -7 -28
-24 -46 -38 -62 -46 -185 -144 -190 -150 -3 -3 -28 -23 -56 -45 -28 -22 -77
-63 -110 -92 -32 -28 -69 -60 -80 -70 -12 -10 -46 -39 -75 -65 -30 -25 -65
-56 -79 -67 -43 -37 -138 -122 -174 -155 -18 -17 -71 -65 -116 -106 -46 -41
-95 -86 -110 -100 -15 -14 -64 -59 -110 -100 -46 -41 -102 -92 -124 -112 -23
-21 -44 -38 -47 -38 -4 0 0 30 8 68 8 37 16 81 19 97 2 17 6 44 9 62 24 151
24 443 0 573 -2 14 -7 39 -9 55 -3 17 -8 39 -10 50 -3 11 -10 39 -16 62 -21
87 -133 333 -152 333 -4 0 -8 5 -8 11 0 22 -106 140 -180 201 -75 63 -223 133
-303 144 -16 2 -34 7 -40 11 -10 6 -282 14 -289 8z"/>
</g>
</svg>
